<svg xmlns="http://www.w3.org/2000/svg" width="29" height="29" viewBox="0 0 29 29">
  <path id="Search" d="M19.362,8.871a.674.674,0,1,1-.954.954,6.077,6.077,0,0,0-8.584,0,.674.674,0,0,1-.954-.954A7.427,7.427,0,0,1,19.362,8.871ZM33,30.3a2.7,2.7,0,0,1-4.6,1.907l-7.081-7.081a.674.674,0,0,1,0-.954l.954-.954-1.5-1.5a10.134,10.134,0,1,1,.954-.954l1.5,1.5.954-.954a.674.674,0,0,1,.954,0L32.21,28.4A2.678,2.678,0,0,1,33,30.3ZM22.884,14.116a8.767,8.767,0,1,0-8.767,8.767A8.777,8.777,0,0,0,22.884,14.116ZM31.651,30.3a1.34,1.34,0,0,0-.4-.954l-6.6-6.6-1.907,1.907,6.6,6.6a1.38,1.38,0,0,0,1.907,0,1.34,1.34,0,0,0,.4-.954Z" transform="translate(-4 -4)" fill="#727272"/>
</svg>
