<svg xmlns="http://www.w3.org/2000/svg" width="28" height="28" viewBox="0 0 28 28">
  <g id="Group_3837" data-name="Group 3837" transform="translate(-837 -108)">
    <circle id="Ellipse_1045" data-name="Ellipse 1045" cx="14" cy="14" r="14" transform="translate(837 108)" fill="#1d82f5"/>
    <g id="reload" transform="translate(822.039 113.273)">
      <g id="Group_3836" data-name="Group 3836" transform="translate(20.982 0)">
        <path id="Path_1534" data-name="Path 1534" d="M24.232,3.461a6.958,6.958,0,0,1,9.045-.239L31.206,3.3a.481.481,0,0,0,.018.962h.018l3.179-.118a.48.48,0,0,0,.463-.481V3.607h0L34.767.464A.481.481,0,1,0,33.8.5l.075,1.971a7.913,7.913,0,0,0-10.293.278,7.916,7.916,0,0,0-2.381,7.737.479.479,0,0,0,.467.367.417.417,0,0,0,.114-.014.482.482,0,0,0,.353-.581A6.954,6.954,0,0,1,24.232,3.461Z" transform="translate(-20.982 0)" fill="#fff"/>
        <path id="Path_1535" data-name="Path 1535" d="M91.023,185.581a.481.481,0,0,0-.934.228A6.952,6.952,0,0,1,78.895,192.8l2.1-.189a.481.481,0,1,0-.089-.959l-3.168.285a.481.481,0,0,0-.435.524l.285,3.168a.48.48,0,0,0,.478.438.175.175,0,0,0,.043,0,.481.481,0,0,0,.435-.524l-.171-1.928a7.86,7.86,0,0,0,4.573,1.743c.135.007.271.011.4.011a7.915,7.915,0,0,0,7.68-9.783Z" transform="translate(-75.289 -178.613)" fill="#fff"/>
      </g>
    </g>
  </g>
</svg>
