<svg xmlns="http://www.w3.org/2000/svg" xlink="http://www.w3.org/1999/xlink" viewBox="15 7 28 28">
  <defs>
    <filter id="Ellipse_58" x="0" y="0" width="58" height="58" filterUnits="userSpaceOnUse">
      <feOffset dy="8" input="SourceAlpha"/>
      <feGaussianBlur stdDeviation="5" result="blur"/>
      <feFlood flood-color="#757575" flood-opacity="0.161"/>
      <feComposite operator="in" in2="blur"/>
      <feComposite in="SourceGraphic"/>
    </filter>
  </defs>
  <g id="Group_3644" data-name="Group 3644" transform="translate(-976 -145)">
    <g transform="matrix(1, 0, 0, 1, 976, 145)" filter="url(#Ellipse_58)">
      <circle id="Ellipse_58-2" data-name="Ellipse 58" cx="14" cy="14" r="14" transform="translate(15 7)" fill="#df0b0b"/>
    </g>
    <path id="remove_1_" data-name="remove (1)" d="M5.059,13A7.941,7.941,0,1,1,13,20.941,7.941,7.941,0,0,1,5.059,13ZM13,4a9,9,0,0,0,0,18,9.139,9.139,0,0,0,6.911-3.235A8.762,8.762,0,0,0,22,13,9,9,0,0,0,13,4ZM9.256,15.995,12.251,13,9.256,10.005,10,9.257,13,12.251l3-3,.748.748-3,3,3,3-.748.748-3-2.995L10,16.743Z" transform="translate(992 153)" fill="#fff" fill-rule="evenodd"/>
  </g>
</svg>