<svg id="maximize" xmlns="http://www.w3.org/2000/svg" width="28" height="28" viewBox="0 0 28 28">
  <path id="Path_14871" data-name="Path 14871" d="M25.375,0H2.625A2.628,2.628,0,0,0,0,2.625V13.431a.875.875,0,0,0,1.75,0V2.625a.876.876,0,0,1,.875-.875h22.75a.876.876,0,0,1,.875.875v22.75a.876.876,0,0,1-.875.875H14.569a.875.875,0,0,0,0,1.75H25.375A2.628,2.628,0,0,0,28,25.375V2.625A2.628,2.628,0,0,0,25.375,0Z"/>
  <path id="Path_14872" data-name="Path 14872" d="M9.625,18h-7A2.628,2.628,0,0,0,0,20.625v7A2.628,2.628,0,0,0,2.625,30.25h7a2.628,2.628,0,0,0,2.625-2.625v-7A2.628,2.628,0,0,0,9.625,18Zm.875,9.625a.876.876,0,0,1-.875.875h-7a.876.876,0,0,1-.875-.875v-7a.876.876,0,0,1,.875-.875h7a.876.876,0,0,1,.875.875Z" transform="translate(0 -2.25)"/>
  <path id="Path_14873" data-name="Path 14873" d="M16.494,15.494,22,9.987v1.388a.875.875,0,0,0,1.75,0v-3.5A.889.889,0,0,0,22.875,7h-3.5a.875.875,0,1,0,0,1.75h1.388l-5.506,5.506a.875.875,0,0,0,0,1.237.886.886,0,0,0,1.237,0Z" transform="translate(-1.875 -0.875)"/>
</svg>
