<svg id="Group_3960" data-name="Group 3960" xmlns="http://www.w3.org/2000/svg" width="28" height="28" viewBox="0 0 28 28">
  <circle id="Ellipse_54" data-name="Ellipse 54" cx="14" cy="14" r="14" fill="#009cec"/>
  <g id="Group_3829" data-name="Group 3829" transform="translate(4.278 5.251)">
    <path id="Path_1532" data-name="Path 1532" d="M6.361,6.861,5,8.222l4.861,4.861,9.722-9.722L18.222,2,9.861,10.361Z" transform="translate(-0.139 -1.028)" fill="#fff"/>
    <path id="Path_1533" data-name="Path 1533" d="M8.75,16.556a6.806,6.806,0,1,1,0-13.611,7.094,7.094,0,0,1,3.4.875l.972-1.653A8.758,8.758,0,0,0,0,9.75a8.75,8.75,0,0,0,17.5,0H15.556A6.764,6.764,0,0,1,8.75,16.556Z" transform="translate(0 -1)" fill="#fff"/>
  </g>
</svg>
